<svg xmlns="http://www.w3.org/2000/svg" style="background: transparent; background-color: transparent; color-scheme: light dark;" xmlns:xlink="http://www.w3.org/1999/xlink" version="1.1" width="1101px" height="397px" viewBox="-0.5 -0.5 1101 397" content="&lt;mxfile&gt;&lt;diagram id=&quot;m--HwTafHGd9kBV_R46E&quot; name=&quot;Page-1&quot;&gt;7VtLc+I4EP41VM0cSPmFgWMg2d3DbFWqctido8DC1iAsrywCzK/fliU/EPbEkxhMKuQQW916tLo/9SfLZuDON/s/OUqiv1mA6cCxgv3AfRg4jm1PHbhIyUFJxt5YCUJOAl2pFDyTn1gLLS3dkgCnRxUFY1SQ5Fi4ZHGMl+JIhjhnu+NqK0aPR01QiE8Ez0tET6X/kEBESjpxxqX8L0zCKB/Z9qdKs0F5ZT2TNEIB21VE7uPAnXPGhLrb7OeYSuflflHt/mjQFoZxHIs2DRxXtXhBdKsnpw0Th3y2nG3jAMsG9sCd7SIi8HOCllK7g/iCLBIbqtUBSqOiriw8ISEwj6VE9gv/3FkqOFvjOaOMg5xKTw0DxNdfBo5rZX8DZ17cf4UWK0JpXj9mMYw904ZjLvC+cfZ24VMAI2YbLPgBqugGQ8/XcTjkkdLlXRlWkGlhVI2pq4VIYyksei/dDTfa4w3ef935KxaLfOKZR3x/PofZy3kTQOQ9eE86V7CkIv2GFpg+sZQIwqR2wYRgG6hADcUSPIWh7xnS/RSCSkzZVlASQ7zy1WQZEQHD5tnfSWxB408m9swFTchRQHA5HR3HXPxAOPSuzIoZl+7XneVrLINOhBLpms0+lLnlLsZix/g6vUt3RCyjbnBhjw1YuDWwqENFF6BosSJvoOgBFN4xJty6VHEuTHg3TFwlJpxJj6Dwb6C4SlCM7B5BMbmBojNQUJQoH3TPHt6oJSZGo/djYnrDxFViwmSPi4IiT0o3VFwZKkz6uCwq7BsqrnJT4U56fCS1WxxU4Di4l0drpRcr4cJ7Iv6VUbob6dJ3HTN5/7CvFg6VwhPmBKyV0c9kv39wpOzEwcmBnuF4mAvb8qWupZ/BBeIh1rWc+vBU3D+qW5NaxjFFgrwcG1EXEj3CEyNgXskURk5wxkZUlfG6VfW8z+zIOPAqDiLzjtSUTzrKEFJMux1oRu8EzaWC7Z8G225YjJeJtmcZQfLfGO2COg4GjM4Q7RZPo79OETGMVckRsvi9qiuzRFY6VEtmnijzjXWUcMri9eUc78pyjmuicPLWnGOcphbPQmdA4bgzopq+GzidIrpHFPabDN1pV8nQu1wybHEKc63U1+8+Z9JRsF33csFucbxyFcGu2dT2vLRf2560XtoGVdkmbLqLdr5f7v1R6EOyy+QUgm6fCLQN4Hjm1qQtAm0DygVrnQGBLY5obghsQuD0FIFer4xnAMczz2taM54BZdfcrneIQOe9CDzPs97HOFvKSa4KQb9PCJofQRVs+rsQPHnxOTofBFt8EfGJvltz6t4RnPG7tbrDHp8KOWGWIaIMg//fVn7MOFsqL9yDsuI4Hi6+KKdZ+eWrutZp1KLLe4S7UF+zoRfclMA8lD3H4oC81JqYLjmjdIH4sGKstGM8UhaU169aIz/5lBLJK/LqWr+2sdE9Fxg7OffA1gbWN4lVF1ayV0I55eEL4gRJcEtVzPgG0Yo2JT/xEAU/tmlRQy8VpacoDrcoxEMGy4aTADf0s4YFS+JQadFWsIqOJdlrKDlWU5UVRmLL8TDFQkCdtGGUbC7yrdBrFSFd4OwFkKmVr66G+ao0lGX0rCVFaXoUrMRuDm+aoLg2wgu0XIdZMqyGWHAUp3nKeQtiz7+gG4cuQKOGt6caa42ZIRc8J+B5aPENHTCvZIlFy8xxmmIavW7a6DfY+CANsQzDrAVOBY5EhtG0on/OXiliOSTEU/HIggDNZVUpzfrAaCUXI/AdiVGQ9acqk1RWgzhtAZVwk6lmAI8Fy3pfDebuYDaX0oBIwT1fRgSIag3rouIaNelWHmuunbTvIUvYudRgeWBRcUzl+XtjildSY76W3pAgkI1rdwTlnsHqiqqNDb5dQ9WuU8PUnRB13Xn4pyfB1/LqjSU/EEv2S4KXJC+d16+Ou47tOqEurdbMldYyV5qxDTBWxkrSqMcYHqu55KN7T0jJpyOf6mdW7U8j3klW5o8crPORFRTL37mpI4Dy14Lu4/8=&lt;/diagram&gt;&lt;/mxfile&gt;"><defs/><g><g><rect x="0" y="0" width="1100" height="130" rx="19.5" ry="19.5" fill="none" stroke="#000000" stroke-dasharray="12 12" pointer-events="all" style="stroke: light-dark(rgb(0, 0, 0), rgb(0, 0, 0));"/></g><g><rect x="630" y="20" width="100" height="25.86" rx="5.17" ry="5.17" fill="#cccccc" stroke="#6881b3" stroke-width="2" pointer-events="all" style="fill: light-dark(rgb(204, 204, 204), rgb(62, 62, 62)); stroke: light-dark(rgb(104, 129, 179), rgb(107, 129, 172));"/><rect x="640" y="45.86" width="80" height="4.14" fill="#cccccc" stroke="#6881b3" stroke-width="2" pointer-events="all" style="fill: light-dark(rgb(204, 204, 204), rgb(62, 62, 62)); stroke: light-dark(rgb(104, 129, 179), rgb(107, 129, 172));"/><ellipse cx="718" cy="32.93" rx="8" ry="8.275862068965518" fill="#ffffff" stroke="none" pointer-events="all" style="fill: light-dark(rgb(255, 255, 255), rgb(18, 18, 18));"/><ellipse cx="705" cy="25.17" rx="2" ry="2.0689655172413794" fill="#ffffff" stroke="none" pointer-events="all" style="fill: light-dark(rgb(255, 255, 255), rgb(18, 18, 18));"/><ellipse cx="705" cy="40.69" rx="2" ry="2.0689655172413794" fill="#ffffff" stroke="none" pointer-events="all" style="fill: light-dark(rgb(255, 255, 255), rgb(18, 18, 18));"/><ellipse cx="705" cy="32.93" rx="2" ry="2.0689655172413794" fill="#ffffff" stroke="none" pointer-events="all" style="fill: light-dark(rgb(255, 255, 255), rgb(18, 18, 18));"/><ellipse cx="695.5" cy="37.59" rx="2" ry="2.0689655172413794" fill="#ffffff" stroke="none" pointer-events="all" style="fill: light-dark(rgb(255, 255, 255), rgb(18, 18, 18));"/><ellipse cx="687" cy="37.59" rx="2" ry="2.0689655172413794" fill="#ffffff" stroke="none" pointer-events="all" style="fill: light-dark(rgb(255, 255, 255), rgb(18, 18, 18));"/><ellipse cx="678.5" cy="37.59" rx="2" ry="2.0689655172413794" fill="#ffffff" stroke="none" pointer-events="all" style="fill: light-dark(rgb(255, 255, 255), rgb(18, 18, 18));"/><ellipse cx="670" cy="37.59" rx="2" ry="2.0689655172413794" fill="#ffffff" stroke="none" pointer-events="all" style="fill: light-dark(rgb(255, 255, 255), rgb(18, 18, 18));"/><ellipse cx="661.5" cy="37.59" rx="2" ry="2.0689655172413794" fill="#ffffff" stroke="none" pointer-events="all" style="fill: light-dark(rgb(255, 255, 255), rgb(18, 18, 18));"/><ellipse cx="653" cy="37.59" rx="2" ry="2.0689655172413794" fill="#ffffff" stroke="none" pointer-events="all" style="fill: light-dark(rgb(255, 255, 255), rgb(18, 18, 18));"/><ellipse cx="644.5" cy="37.59" rx="2" ry="2.0689655172413794" fill="#ffffff" stroke="none" pointer-events="all" style="fill: light-dark(rgb(255, 255, 255), rgb(18, 18, 18));"/><ellipse cx="636" cy="37.59" rx="2" ry="2.0689655172413794" fill="#ffffff" stroke="none" pointer-events="all" style="fill: light-dark(rgb(255, 255, 255), rgb(18, 18, 18));"/><path d="M 633 27.24 L 639 27.24 L 639 30.34 L 637 30.34 L 637 31.38 L 635 31.38 L 635 30.34 L 633 30.34 Z M 641.5 27.24 L 647.5 27.24 L 647.5 30.34 L 645.5 30.34 L 645.5 31.38 L 643.5 31.38 L 643.5 30.34 L 641.5 30.34 Z M 650 27.24 L 656 27.24 L 656 30.34 L 654 30.34 L 654 31.38 L 652 31.38 L 652 30.34 L 650 30.34 Z M 658.5 27.24 L 664.5 27.24 L 664.5 30.34 L 662.5 30.34 L 662.5 31.38 L 660.5 31.38 L 660.5 30.34 L 658.5 30.34 Z M 667 27.24 L 673 27.24 L 673 30.34 L 671 30.34 L 671 31.38 L 669 31.38 L 669 30.34 L 667 30.34 Z M 675.5 27.24 L 681.5 27.24 L 681.5 30.34 L 679.5 30.34 L 679.5 31.38 L 677.5 31.38 L 677.5 30.34 L 675.5 30.34 Z M 684 27.24 L 690 27.24 L 690 30.34 L 688 30.34 L 688 31.38 L 686 31.38 L 686 30.34 L 684 30.34 Z M 692.5 27.24 L 698.5 27.24 L 698.5 30.34 L 696.5 30.34 L 696.5 31.38 L 694.5 31.38 L 694.5 30.34 L 692.5 30.34 Z" fill="#ffffff" stroke="none" pointer-events="all" style="fill: light-dark(rgb(255, 255, 255), rgb(18, 18, 18));"/><path d="M 712 29.31 L 714 27.24 L 716 29.31 M 712 36.55 L 714 38.62 L 716 36.55 M 720 29.31 L 722 27.24 L 724 29.31 M 720 36.55 L 722 38.62 L 724 36.55 M 722 38.62 L 722 35.52 L 714 30.34 L 714 27.24 M 714 38.62 L 714 35.52 L 722 30.34 L 722 27.24" fill="none" stroke="#6881b3" stroke-miterlimit="10" pointer-events="all" style="stroke: light-dark(rgb(104, 129, 179), rgb(107, 129, 172));"/></g><g><rect x="500" y="200" width="100" height="25.86" rx="5.17" ry="5.17" fill="#cccccc" stroke="#6881b3" stroke-width="2" pointer-events="all" style="fill: light-dark(rgb(204, 204, 204), rgb(62, 62, 62)); stroke: light-dark(rgb(104, 129, 179), rgb(107, 129, 172));"/><rect x="510" y="225.86" width="80" height="4.14" fill="#cccccc" stroke="#6881b3" stroke-width="2" pointer-events="all" style="fill: light-dark(rgb(204, 204, 204), rgb(62, 62, 62)); stroke: light-dark(rgb(104, 129, 179), rgb(107, 129, 172));"/><ellipse cx="588" cy="212.93" rx="8" ry="8.275862068965518" fill="#ffffff" stroke="none" pointer-events="all" style="fill: light-dark(rgb(255, 255, 255), rgb(18, 18, 18));"/><ellipse cx="575" cy="205.17" rx="2" ry="2.0689655172413794" fill="#ffffff" stroke="none" pointer-events="all" style="fill: light-dark(rgb(255, 255, 255), rgb(18, 18, 18));"/><ellipse cx="575" cy="220.69" rx="2" ry="2.0689655172413794" fill="#ffffff" stroke="none" pointer-events="all" style="fill: light-dark(rgb(255, 255, 255), rgb(18, 18, 18));"/><ellipse cx="575" cy="212.93" rx="2" ry="2.0689655172413794" fill="#ffffff" stroke="none" pointer-events="all" style="fill: light-dark(rgb(255, 255, 255), rgb(18, 18, 18));"/><ellipse cx="565.5" cy="217.59" rx="2" ry="2.0689655172413794" fill="#ffffff" stroke="none" pointer-events="all" style="fill: light-dark(rgb(255, 255, 255), rgb(18, 18, 18));"/><ellipse cx="557" cy="217.59" rx="2" ry="2.0689655172413794" fill="#ffffff" stroke="none" pointer-events="all" style="fill: light-dark(rgb(255, 255, 255), rgb(18, 18, 18));"/><ellipse cx="548.5" cy="217.59" rx="2" ry="2.0689655172413794" fill="#ffffff" stroke="none" pointer-events="all" style="fill: light-dark(rgb(255, 255, 255), rgb(18, 18, 18));"/><ellipse cx="540" cy="217.59" rx="2" ry="2.0689655172413794" fill="#ffffff" stroke="none" pointer-events="all" style="fill: light-dark(rgb(255, 255, 255), rgb(18, 18, 18));"/><ellipse cx="531.5" cy="217.59" rx="2" ry="2.0689655172413794" fill="#ffffff" stroke="none" pointer-events="all" style="fill: light-dark(rgb(255, 255, 255), rgb(18, 18, 18));"/><ellipse cx="523" cy="217.59" rx="2" ry="2.0689655172413794" fill="#ffffff" stroke="none" pointer-events="all" style="fill: light-dark(rgb(255, 255, 255), rgb(18, 18, 18));"/><ellipse cx="514.5" cy="217.59" rx="2" ry="2.0689655172413794" fill="#ffffff" stroke="none" pointer-events="all" style="fill: light-dark(rgb(255, 255, 255), rgb(18, 18, 18));"/><ellipse cx="506" cy="217.59" rx="2" ry="2.0689655172413794" fill="#ffffff" stroke="none" pointer-events="all" style="fill: light-dark(rgb(255, 255, 255), rgb(18, 18, 18));"/><path d="M 503 207.24 L 509 207.24 L 509 210.34 L 507 210.34 L 507 211.38 L 505 211.38 L 505 210.34 L 503 210.34 Z M 511.5 207.24 L 517.5 207.24 L 517.5 210.34 L 515.5 210.34 L 515.5 211.38 L 513.5 211.38 L 513.5 210.34 L 511.5 210.34 Z M 520 207.24 L 526 207.24 L 526 210.34 L 524 210.34 L 524 211.38 L 522 211.38 L 522 210.34 L 520 210.34 Z M 528.5 207.24 L 534.5 207.24 L 534.5 210.34 L 532.5 210.34 L 532.5 211.38 L 530.5 211.38 L 530.5 210.34 L 528.5 210.34 Z M 537 207.24 L 543 207.24 L 543 210.34 L 541 210.34 L 541 211.38 L 539 211.38 L 539 210.34 L 537 210.34 Z M 545.5 207.24 L 551.5 207.24 L 551.5 210.34 L 549.5 210.34 L 549.5 211.38 L 547.5 211.38 L 547.5 210.34 L 545.5 210.34 Z M 554 207.24 L 560 207.24 L 560 210.34 L 558 210.34 L 558 211.38 L 556 211.38 L 556 210.34 L 554 210.34 Z M 562.5 207.24 L 568.5 207.24 L 568.5 210.34 L 566.5 210.34 L 566.5 211.38 L 564.5 211.38 L 564.5 210.34 L 562.5 210.34 Z" fill="#ffffff" stroke="none" pointer-events="all" style="fill: light-dark(rgb(255, 255, 255), rgb(18, 18, 18));"/><path d="M 582 209.31 L 584 207.24 L 586 209.31 M 582 216.55 L 584 218.62 L 586 216.55 M 590 209.31 L 592 207.24 L 594 209.31 M 590 216.55 L 592 218.62 L 594 216.55 M 592 218.62 L 592 215.52 L 584 210.34 L 584 207.24 M 584 218.62 L 584 215.52 L 592 210.34 L 592 207.24" fill="none" stroke="#6881b3" stroke-miterlimit="10" pointer-events="all" style="stroke: light-dark(rgb(104, 129, 179), rgb(107, 129, 172));"/></g><g><rect x="740" y="200" width="100" height="25.86" rx="5.17" ry="5.17" fill="#cccccc" stroke="#6881b3" stroke-width="2" pointer-events="all" style="fill: light-dark(rgb(204, 204, 204), rgb(62, 62, 62)); stroke: light-dark(rgb(104, 129, 179), rgb(107, 129, 172));"/><rect x="750" y="225.86" width="80" height="4.14" fill="#cccccc" stroke="#6881b3" stroke-width="2" pointer-events="all" style="fill: light-dark(rgb(204, 204, 204), rgb(62, 62, 62)); stroke: light-dark(rgb(104, 129, 179), rgb(107, 129, 172));"/><ellipse cx="828" cy="212.93" rx="8" ry="8.275862068965518" fill="#ffffff" stroke="none" pointer-events="all" style="fill: light-dark(rgb(255, 255, 255), rgb(18, 18, 18));"/><ellipse cx="815" cy="205.17" rx="2" ry="2.0689655172413794" fill="#ffffff" stroke="none" pointer-events="all" style="fill: light-dark(rgb(255, 255, 255), rgb(18, 18, 18));"/><ellipse cx="815" cy="220.69" rx="2" ry="2.0689655172413794" fill="#ffffff" stroke="none" pointer-events="all" style="fill: light-dark(rgb(255, 255, 255), rgb(18, 18, 18));"/><ellipse cx="815" cy="212.93" rx="2" ry="2.0689655172413794" fill="#ffffff" stroke="none" pointer-events="all" style="fill: light-dark(rgb(255, 255, 255), rgb(18, 18, 18));"/><ellipse cx="805.5" cy="217.59" rx="2" ry="2.0689655172413794" fill="#ffffff" stroke="none" pointer-events="all" style="fill: light-dark(rgb(255, 255, 255), rgb(18, 18, 18));"/><ellipse cx="797" cy="217.59" rx="2" ry="2.0689655172413794" fill="#ffffff" stroke="none" pointer-events="all" style="fill: light-dark(rgb(255, 255, 255), rgb(18, 18, 18));"/><ellipse cx="788.5" cy="217.59" rx="2" ry="2.0689655172413794" fill="#ffffff" stroke="none" pointer-events="all" style="fill: light-dark(rgb(255, 255, 255), rgb(18, 18, 18));"/><ellipse cx="780" cy="217.59" rx="2" ry="2.0689655172413794" fill="#ffffff" stroke="none" pointer-events="all" style="fill: light-dark(rgb(255, 255, 255), rgb(18, 18, 18));"/><ellipse cx="771.5" cy="217.59" rx="2" ry="2.0689655172413794" fill="#ffffff" stroke="none" pointer-events="all" style="fill: light-dark(rgb(255, 255, 255), rgb(18, 18, 18));"/><ellipse cx="763" cy="217.59" rx="2" ry="2.0689655172413794" fill="#ffffff" stroke="none" pointer-events="all" style="fill: light-dark(rgb(255, 255, 255), rgb(18, 18, 18));"/><ellipse cx="754.5" cy="217.59" rx="2" ry="2.0689655172413794" fill="#ffffff" stroke="none" pointer-events="all" style="fill: light-dark(rgb(255, 255, 255), rgb(18, 18, 18));"/><ellipse cx="746" cy="217.59" rx="2" ry="2.0689655172413794" fill="#ffffff" stroke="none" pointer-events="all" style="fill: light-dark(rgb(255, 255, 255), rgb(18, 18, 18));"/><path d="M 743 207.24 L 749 207.24 L 749 210.34 L 747 210.34 L 747 211.38 L 745 211.38 L 745 210.34 L 743 210.34 Z M 751.5 207.24 L 757.5 207.24 L 757.5 210.34 L 755.5 210.34 L 755.5 211.38 L 753.5 211.38 L 753.5 210.34 L 751.5 210.34 Z M 760 207.24 L 766 207.24 L 766 210.34 L 764 210.34 L 764 211.38 L 762 211.38 L 762 210.34 L 760 210.34 Z M 768.5 207.24 L 774.5 207.24 L 774.5 210.34 L 772.5 210.34 L 772.5 211.38 L 770.5 211.38 L 770.5 210.34 L 768.5 210.34 Z M 777 207.24 L 783 207.24 L 783 210.34 L 781 210.34 L 781 211.38 L 779 211.38 L 779 210.34 L 777 210.34 Z M 785.5 207.24 L 791.5 207.24 L 791.5 210.34 L 789.5 210.34 L 789.5 211.38 L 787.5 211.38 L 787.5 210.34 L 785.5 210.34 Z M 794 207.24 L 800 207.24 L 800 210.34 L 798 210.34 L 798 211.38 L 796 211.38 L 796 210.34 L 794 210.34 Z M 802.5 207.24 L 808.5 207.24 L 808.5 210.34 L 806.5 210.34 L 806.5 211.38 L 804.5 211.38 L 804.5 210.34 L 802.5 210.34 Z" fill="#ffffff" stroke="none" pointer-events="all" style="fill: light-dark(rgb(255, 255, 255), rgb(18, 18, 18));"/><path d="M 822 209.31 L 824 207.24 L 826 209.31 M 822 216.55 L 824 218.62 L 826 216.55 M 830 209.31 L 832 207.24 L 834 209.31 M 830 216.55 L 832 218.62 L 834 216.55 M 832 218.62 L 832 215.52 L 824 210.34 L 824 207.24 M 824 218.62 L 824 215.52 L 832 210.34 L 832 207.24" fill="none" stroke="#6881b3" stroke-miterlimit="10" pointer-events="all" style="stroke: light-dark(rgb(104, 129, 179), rgb(107, 129, 172));"/></g><g><rect x="970" y="200" width="100" height="25.86" rx="5.17" ry="5.17" fill="#cccccc" stroke="#6881b3" stroke-width="2" pointer-events="all" style="fill: light-dark(rgb(204, 204, 204), rgb(62, 62, 62)); stroke: light-dark(rgb(104, 129, 179), rgb(107, 129, 172));"/><rect x="980" y="225.86" width="80" height="4.14" fill="#cccccc" stroke="#6881b3" stroke-width="2" pointer-events="all" style="fill: light-dark(rgb(204, 204, 204), rgb(62, 62, 62)); stroke: light-dark(rgb(104, 129, 179), rgb(107, 129, 172));"/><ellipse cx="1058" cy="212.93" rx="8" ry="8.275862068965518" fill="#ffffff" stroke="none" pointer-events="all" style="fill: light-dark(rgb(255, 255, 255), rgb(18, 18, 18));"/><ellipse cx="1045" cy="205.17" rx="2" ry="2.0689655172413794" fill="#ffffff" stroke="none" pointer-events="all" style="fill: light-dark(rgb(255, 255, 255), rgb(18, 18, 18));"/><ellipse cx="1045" cy="220.69" rx="2" ry="2.0689655172413794" fill="#ffffff" stroke="none" pointer-events="all" style="fill: light-dark(rgb(255, 255, 255), rgb(18, 18, 18));"/><ellipse cx="1045" cy="212.93" rx="2" ry="2.0689655172413794" fill="#ffffff" stroke="none" pointer-events="all" style="fill: light-dark(rgb(255, 255, 255), rgb(18, 18, 18));"/><ellipse cx="1035.5" cy="217.59" rx="2" ry="2.0689655172413794" fill="#ffffff" stroke="none" pointer-events="all" style="fill: light-dark(rgb(255, 255, 255), rgb(18, 18, 18));"/><ellipse cx="1027" cy="217.59" rx="2" ry="2.0689655172413794" fill="#ffffff" stroke="none" pointer-events="all" style="fill: light-dark(rgb(255, 255, 255), rgb(18, 18, 18));"/><ellipse cx="1018.5" cy="217.59" rx="2" ry="2.0689655172413794" fill="#ffffff" stroke="none" pointer-events="all" style="fill: light-dark(rgb(255, 255, 255), rgb(18, 18, 18));"/><ellipse cx="1010" cy="217.59" rx="2" ry="2.0689655172413794" fill="#ffffff" stroke="none" pointer-events="all" style="fill: light-dark(rgb(255, 255, 255), rgb(18, 18, 18));"/><ellipse cx="1001.5" cy="217.59" rx="2" ry="2.0689655172413794" fill="#ffffff" stroke="none" pointer-events="all" style="fill: light-dark(rgb(255, 255, 255), rgb(18, 18, 18));"/><ellipse cx="993" cy="217.59" rx="2" ry="2.0689655172413794" fill="#ffffff" stroke="none" pointer-events="all" style="fill: light-dark(rgb(255, 255, 255), rgb(18, 18, 18));"/><ellipse cx="984.5" cy="217.59" rx="2" ry="2.0689655172413794" fill="#ffffff" stroke="none" pointer-events="all" style="fill: light-dark(rgb(255, 255, 255), rgb(18, 18, 18));"/><ellipse cx="976" cy="217.59" rx="2" ry="2.0689655172413794" fill="#ffffff" stroke="none" pointer-events="all" style="fill: light-dark(rgb(255, 255, 255), rgb(18, 18, 18));"/><path d="M 973 207.24 L 979 207.24 L 979 210.34 L 977 210.34 L 977 211.38 L 975 211.38 L 975 210.34 L 973 210.34 Z M 981.5 207.24 L 987.5 207.24 L 987.5 210.34 L 985.5 210.34 L 985.5 211.38 L 983.5 211.38 L 983.5 210.34 L 981.5 210.34 Z M 990 207.24 L 996 207.24 L 996 210.34 L 994 210.34 L 994 211.38 L 992 211.38 L 992 210.34 L 990 210.34 Z M 998.5 207.24 L 1004.5 207.24 L 1004.5 210.34 L 1002.5 210.34 L 1002.5 211.38 L 1000.5 211.38 L 1000.5 210.34 L 998.5 210.34 Z M 1007 207.24 L 1013 207.24 L 1013 210.34 L 1011 210.34 L 1011 211.38 L 1009 211.38 L 1009 210.34 L 1007 210.34 Z M 1015.5 207.24 L 1021.5 207.24 L 1021.5 210.34 L 1019.5 210.34 L 1019.5 211.38 L 1017.5 211.38 L 1017.5 210.34 L 1015.5 210.34 Z M 1024 207.24 L 1030 207.24 L 1030 210.34 L 1028 210.34 L 1028 211.38 L 1026 211.38 L 1026 210.34 L 1024 210.34 Z M 1032.5 207.24 L 1038.5 207.24 L 1038.5 210.34 L 1036.5 210.34 L 1036.5 211.38 L 1034.5 211.38 L 1034.5 210.34 L 1032.5 210.34 Z" fill="#ffffff" stroke="none" pointer-events="all" style="fill: light-dark(rgb(255, 255, 255), rgb(18, 18, 18));"/><path d="M 1052 209.31 L 1054 207.24 L 1056 209.31 M 1052 216.55 L 1054 218.62 L 1056 216.55 M 1060 209.31 L 1062 207.24 L 1064 209.31 M 1060 216.55 L 1062 218.62 L 1064 216.55 M 1062 218.62 L 1062 215.52 L 1054 210.34 L 1054 207.24 M 1054 218.62 L 1054 215.52 L 1062 210.34 L 1062 207.24" fill="none" stroke="#6881b3" stroke-miterlimit="10" pointer-events="all" style="stroke: light-dark(rgb(104, 129, 179), rgb(107, 129, 172));"/></g><g><path d="M 513.95 377.57 L 585.81 377.57 L 600 395 L 500 395 Z M 516.5 340 L 583 340 L 584.98 377.14 L 514.53 377.14 Z" fill="#cccccc" stroke="#6881b3" stroke-width="1.9" stroke-linejoin="round" stroke-miterlimit="10" pointer-events="all" style="fill: light-dark(rgb(204, 204, 204), rgb(62, 62, 62)); stroke: light-dark(rgb(104, 129, 179), rgb(107, 129, 172));"/><path d="M 517 381.9 L 583.99 381.9 M 512.56 386.67 L 588.42 386.67 M 531.77 390.95 L 566.26 390.95" fill="none" stroke="#6881b3" stroke-width="1.9" stroke-linejoin="round" stroke-miterlimit="10" pointer-events="all" style="stroke: light-dark(rgb(104, 129, 179), rgb(107, 129, 172));"/><path d="M 519.75 343.33 L 579.85 343.33 L 581.53 373.81 L 517.98 373.81 Z" fill="#ffffff" stroke="none" pointer-events="all" style="fill: light-dark(rgb(255, 255, 255), rgb(18, 18, 18));"/></g><g><path d="M 753.95 377.57 L 825.81 377.57 L 840 395 L 740 395 Z M 756.5 340 L 823 340 L 824.98 377.14 L 754.53 377.14 Z" fill="#cccccc" stroke="#6881b3" stroke-width="1.9" stroke-linejoin="round" stroke-miterlimit="10" pointer-events="all" style="fill: light-dark(rgb(204, 204, 204), rgb(62, 62, 62)); stroke: light-dark(rgb(104, 129, 179), rgb(107, 129, 172));"/><path d="M 757 381.9 L 823.99 381.9 M 752.56 386.67 L 828.42 386.67 M 771.77 390.95 L 806.26 390.95" fill="none" stroke="#6881b3" stroke-width="1.9" stroke-linejoin="round" stroke-miterlimit="10" pointer-events="all" style="stroke: light-dark(rgb(104, 129, 179), rgb(107, 129, 172));"/><path d="M 759.75 343.33 L 819.85 343.33 L 821.53 373.81 L 757.98 373.81 Z" fill="#ffffff" stroke="none" pointer-events="all" style="fill: light-dark(rgb(255, 255, 255), rgb(18, 18, 18));"/></g><g><path d="M 983.95 377.57 L 1055.81 377.57 L 1070 395 L 970 395 Z M 986.5 340 L 1053 340 L 1054.98 377.14 L 984.53 377.14 Z" fill="#cccccc" stroke="#6881b3" stroke-width="1.9" stroke-linejoin="round" stroke-miterlimit="10" pointer-events="all" style="fill: light-dark(rgb(204, 204, 204), rgb(62, 62, 62)); stroke: light-dark(rgb(104, 129, 179), rgb(107, 129, 172));"/><path d="M 987 381.9 L 1053.99 381.9 M 982.56 386.67 L 1058.42 386.67 M 1001.77 390.95 L 1036.26 390.95" fill="none" stroke="#6881b3" stroke-width="1.9" stroke-linejoin="round" stroke-miterlimit="10" pointer-events="all" style="stroke: light-dark(rgb(104, 129, 179), rgb(107, 129, 172));"/><path d="M 989.75 343.33 L 1049.85 343.33 L 1051.53 373.81 L 987.98 373.81 Z" fill="#ffffff" stroke="none" pointer-events="all" style="fill: light-dark(rgb(255, 255, 255), rgb(18, 18, 18));"/></g><g><rect x="840" y="20" width="100" height="25.86" rx="5.17" ry="5.17" fill="#cccccc" stroke="#6881b3" stroke-width="2" pointer-events="all" style="fill: light-dark(rgb(204, 204, 204), rgb(62, 62, 62)); stroke: light-dark(rgb(104, 129, 179), rgb(107, 129, 172));"/><rect x="850" y="45.86" width="80" height="4.14" fill="#cccccc" stroke="#6881b3" stroke-width="2" pointer-events="all" style="fill: light-dark(rgb(204, 204, 204), rgb(62, 62, 62)); stroke: light-dark(rgb(104, 129, 179), rgb(107, 129, 172));"/><ellipse cx="928" cy="32.93" rx="8" ry="8.275862068965518" fill="#ffffff" stroke="none" pointer-events="all" style="fill: light-dark(rgb(255, 255, 255), rgb(18, 18, 18));"/><ellipse cx="915" cy="25.17" rx="2" ry="2.0689655172413794" fill="#ffffff" stroke="none" pointer-events="all" style="fill: light-dark(rgb(255, 255, 255), rgb(18, 18, 18));"/><ellipse cx="915" cy="40.69" rx="2" ry="2.0689655172413794" fill="#ffffff" stroke="none" pointer-events="all" style="fill: light-dark(rgb(255, 255, 255), rgb(18, 18, 18));"/><ellipse cx="915" cy="32.93" rx="2" ry="2.0689655172413794" fill="#ffffff" stroke="none" pointer-events="all" style="fill: light-dark(rgb(255, 255, 255), rgb(18, 18, 18));"/><ellipse cx="905.5" cy="37.59" rx="2" ry="2.0689655172413794" fill="#ffffff" stroke="none" pointer-events="all" style="fill: light-dark(rgb(255, 255, 255), rgb(18, 18, 18));"/><ellipse cx="897" cy="37.59" rx="2" ry="2.0689655172413794" fill="#ffffff" stroke="none" pointer-events="all" style="fill: light-dark(rgb(255, 255, 255), rgb(18, 18, 18));"/><ellipse cx="888.5" cy="37.59" rx="2" ry="2.0689655172413794" fill="#ffffff" stroke="none" pointer-events="all" style="fill: light-dark(rgb(255, 255, 255), rgb(18, 18, 18));"/><ellipse cx="880" cy="37.59" rx="2" ry="2.0689655172413794" fill="#ffffff" stroke="none" pointer-events="all" style="fill: light-dark(rgb(255, 255, 255), rgb(18, 18, 18));"/><ellipse cx="871.5" cy="37.59" rx="2" ry="2.0689655172413794" fill="#ffffff" stroke="none" pointer-events="all" style="fill: light-dark(rgb(255, 255, 255), rgb(18, 18, 18));"/><ellipse cx="863" cy="37.59" rx="2" ry="2.0689655172413794" fill="#ffffff" stroke="none" pointer-events="all" style="fill: light-dark(rgb(255, 255, 255), rgb(18, 18, 18));"/><ellipse cx="854.5" cy="37.59" rx="2" ry="2.0689655172413794" fill="#ffffff" stroke="none" pointer-events="all" style="fill: light-dark(rgb(255, 255, 255), rgb(18, 18, 18));"/><ellipse cx="846" cy="37.59" rx="2" ry="2.0689655172413794" fill="#ffffff" stroke="none" pointer-events="all" style="fill: light-dark(rgb(255, 255, 255), rgb(18, 18, 18));"/><path d="M 843 27.24 L 849 27.24 L 849 30.34 L 847 30.34 L 847 31.38 L 845 31.38 L 845 30.34 L 843 30.34 Z M 851.5 27.24 L 857.5 27.24 L 857.5 30.34 L 855.5 30.34 L 855.5 31.38 L 853.5 31.38 L 853.5 30.34 L 851.5 30.34 Z M 860 27.24 L 866 27.24 L 866 30.34 L 864 30.34 L 864 31.38 L 862 31.38 L 862 30.34 L 860 30.34 Z M 868.5 27.24 L 874.5 27.24 L 874.5 30.34 L 872.5 30.34 L 872.5 31.38 L 870.5 31.38 L 870.5 30.34 L 868.5 30.34 Z M 877 27.24 L 883 27.24 L 883 30.34 L 881 30.34 L 881 31.38 L 879 31.38 L 879 30.34 L 877 30.34 Z M 885.5 27.24 L 891.5 27.24 L 891.5 30.34 L 889.5 30.34 L 889.5 31.38 L 887.5 31.38 L 887.5 30.34 L 885.5 30.34 Z M 894 27.24 L 900 27.24 L 900 30.34 L 898 30.34 L 898 31.38 L 896 31.38 L 896 30.34 L 894 30.34 Z M 902.5 27.24 L 908.5 27.24 L 908.5 30.34 L 906.5 30.34 L 906.5 31.38 L 904.5 31.38 L 904.5 30.34 L 902.5 30.34 Z" fill="#ffffff" stroke="none" pointer-events="all" style="fill: light-dark(rgb(255, 255, 255), rgb(18, 18, 18));"/><path d="M 922 29.31 L 924 27.24 L 926 29.31 M 922 36.55 L 924 38.62 L 926 36.55 M 930 29.31 L 932 27.24 L 934 29.31 M 930 36.55 L 932 38.62 L 934 36.55 M 932 38.62 L 932 35.52 L 924 30.34 L 924 27.24 M 924 38.62 L 924 35.52 L 932 30.34 L 932 27.24" fill="none" stroke="#6881b3" stroke-miterlimit="10" pointer-events="all" style="stroke: light-dark(rgb(104, 129, 179), rgb(107, 129, 172));"/></g><g><path d="M 550 200 L 668.18 50" fill="none" stroke="#000000" stroke-miterlimit="10" pointer-events="stroke" style="stroke: light-dark(rgb(0, 0, 0), rgb(0, 0, 0));"/></g><g><path d="M 1009.17 200 L 900.83 50" fill="none" stroke="#000000" stroke-miterlimit="10" pointer-events="stroke" style="stroke: light-dark(rgb(0, 0, 0), rgb(0, 0, 0));"/></g><g><path d="M 745 201.5 L 680 50" fill="none" stroke="#000000" stroke-miterlimit="10" pointer-events="stroke" style="stroke: light-dark(rgb(0, 0, 0), rgb(0, 0, 0));"/></g><g><path d="M 835 201.5 L 890 50" fill="none" stroke="#000000" stroke-miterlimit="10" pointer-events="stroke" style="stroke: light-dark(rgb(0, 0, 0), rgb(0, 0, 0));"/></g><g><path d="M 991.67 200 L 708.33 50" fill="none" stroke="#000000" stroke-miterlimit="10" pointer-events="stroke" style="stroke: light-dark(rgb(0, 0, 0), rgb(0, 0, 0));"/></g><g><path d="M 578.33 200 L 861.67 50" fill="none" stroke="#000000" stroke-miterlimit="10" pointer-events="stroke" style="stroke: light-dark(rgb(0, 0, 0), rgb(0, 0, 0));"/></g><g><path d="M 550 340 L 550 230" fill="none" stroke="#000000" stroke-miterlimit="10" pointer-events="stroke" style="stroke: light-dark(rgb(0, 0, 0), rgb(0, 0, 0));"/></g><g><path d="M 790 340 L 790 230" fill="none" stroke="#000000" stroke-miterlimit="10" pointer-events="stroke" style="stroke: light-dark(rgb(0, 0, 0), rgb(0, 0, 0));"/></g><g><path d="M 1020 340 L 1020 230" fill="none" stroke="#000000" stroke-miterlimit="10" pointer-events="stroke" style="stroke: light-dark(rgb(0, 0, 0), rgb(0, 0, 0));"/></g><g><rect x="0" y="140" width="1100" height="130" rx="19.5" ry="19.5" fill="none" stroke="#000000" stroke-dasharray="12 12" pointer-events="all" style="stroke: light-dark(rgb(0, 0, 0), rgb(0, 0, 0));"/></g><g><rect x="10" y="40" width="320" height="30" fill="none" stroke="none" pointer-events="all"/></g><g><g transform="translate(-0.5 -0.5)"><switch><foreignObject style="overflow: visible; text-align: left;" pointer-events="none" width="100%" height="100%" requiredFeatures="http://www.w3.org/TR/SVG11/feature#Extensibility"><div xmlns="http://www.w3.org/1999/xhtml" style="display: flex; align-items: unsafe center; justify-content: unsafe flex-start; width: 318px; height: 1px; padding-top: 55px; margin-left: 12px;"><div style="box-sizing: border-box; font-size: 0; text-align: left; color: #000000; "><div style="display: inline-block; font-size: 12px; font-family: &quot;Helvetica&quot;; color: light-dark(#000000, #ffffff); line-height: 1.2; pointer-events: all; white-space: normal; word-wrap: normal; "><font style="color: light-dark(rgb(0, 0, 0), rgb(0, 0, 0));"><br /></font><div style="scrollbar-color: rgb(75, 75, 75) rgb(27, 29, 30);"><font style="scrollbar-color: rgb(75, 75, 75) rgb(27, 29, 30);"><p class="p1" style="scrollbar-color: rgb(75, 75, 75) rgb(27, 29, 30); margin: 0px; font-variant: normal; font-size-adjust: none; font-language-override: normal; font-kerning: auto; font-optical-sizing: auto; font-feature-settings: normal; font-variation-settings: normal; font-stretch: normal; line-height: normal;"><span style="background-color: transparent;"><font style="color: light-dark(rgb(0, 0, 0), rgb(0, 0, 0));"><font style="font-size: 19px;"><b>Spine Layer</b></font><br /><span style="font-size: 16px;">Der Spine Layer besteht aus Spine Switchen und verbindet alle Leaf miteinader und ist daruch der Backbone für die Archirtektur</span></font></span></p></font></div></div></div></div></foreignObject><text x="12" y="59" fill="light-dark(#000000, #ffffff)" font-family="&quot;Helvetica&quot;" font-size="12px">Spine Layer...</text></switch></g></g><g><rect x="20" y="190" width="320" height="30" fill="none" stroke="none" pointer-events="all"/></g><g><g transform="translate(-0.5 -0.5)"><switch><foreignObject style="overflow: visible; text-align: left;" pointer-events="none" width="100%" height="100%" requiredFeatures="http://www.w3.org/TR/SVG11/feature#Extensibility"><div xmlns="http://www.w3.org/1999/xhtml" style="display: flex; align-items: unsafe center; justify-content: unsafe flex-start; width: 318px; height: 1px; padding-top: 205px; margin-left: 22px;"><div style="box-sizing: border-box; font-size: 0; text-align: left; color: #000000; "><div style="display: inline-block; font-size: 12px; font-family: &quot;Helvetica&quot;; color: light-dark(#000000, #000000); line-height: 1.2; pointer-events: all; white-space: normal; word-wrap: normal; "><div style="scrollbar-color: rgb(75, 75, 75) rgb(27, 29, 30);"><font style="scrollbar-color: rgb(75, 75, 75) rgb(27, 29, 30);"><p style="scrollbar-color: rgb(75, 75, 75) rgb(27, 29, 30); margin: 0px; font-variant: normal; font-size-adjust: none; font-language-override: normal; font-kerning: auto; font-optical-sizing: auto; font-feature-settings: normal; font-variation-settings: normal; font-stretch: normal; line-height: normal;" class="p1"><span style="background-color: transparent;"><font style=""><font style="font-size: 19px;"><b>Leaf Layer</b></font><br /><span style="font-size: 16px;">Der Leaf Layer besteht aus Leaf Switches und verbindet sie mit den Endgeräten</span></font></span></p></font></div></div></div></div></foreignObject><text x="22" y="209" fill="light-dark(#000000,#000000)" font-family="&quot;Helvetica&quot;" font-size="12px">Leaf Layer...</text></switch></g></g></g><switch><g requiredFeatures="http://www.w3.org/TR/SVG11/feature#Extensibility"/><a transform="translate(0,-5)" xlink:href="https://www.drawio.com/doc/faq/svg-export-text-problems" target="_blank"><text text-anchor="middle" font-size="10px" x="50%" y="100%">Text is not SVG - cannot display</text></a></switch></svg>